<svg xmlns="http://www.w3.org/2000/svg" version="1.1" xmlns:xlink="http://www.w3.org/1999/xlink" xmlns:svgjs="http://svgjs.dev/svgjs" width="200" height="31" viewBox="0 0 2000 318"><g transform="matrix(1,0,0,1,-1.2121212121212466,1.0704549793191234)"><svg viewBox="0 0 396 63" data-background-color="#ffffff" preserveAspectRatio="xMidYMid meet" height="318" width="2000" xmlns="http://www.w3.org/2000/svg" xmlns:xlink="http://www.w3.org/1999/xlink"><g id="tight-bounds" transform="matrix(1,0,0,1,0.2400000000000091,-0.21207126948775112)"><svg viewBox="0 0 395.52 63.4241425389755" height="63.4241425389755" width="395.52"><g><svg viewBox="0 0 395.52 63.4241425389755" height="63.4241425389755" width="395.52"><g><svg viewBox="0 0 395.52 63.4241425389755" height="63.4241425389755" width="395.52"><g id="textblocktransform"><svg viewBox="0 0 395.52 63.4241425389755" height="63.4241425389755" width="395.52" id="textblock"><g><svg viewBox="0 0 395.52 63.4241425389755" height="63.4241425389755" width="395.52"><g transform="matrix(1,0,0,1,0,0)"><svg width="395.52" viewBox="2.5 -38.5 246.93 39.6" height="63.4241425389755" data-palette-color="#000000"><path d="M16.6-37.5Q22.2-37.5 26.35-35.23 30.5-32.95 32.77-28.65 35.05-24.35 35.05-18.45L35.05-18.45Q35.05-12.8 32.63-8.63 30.2-4.45 25.88-2.23 21.55 0 16 0L16 0 2.5 0 2.5-0.95Q2.85-0.95 3.23-1.1 3.6-1.25 3.6-1.5L3.6-1.5 3.6-36Q3.6-36.25 3.23-36.4 2.85-36.55 2.5-36.55L2.5-36.55 2.5-37.5 16.6-37.5ZM10.15-5.9L15.05-5.9Q19.4-5.9 22.48-7.48 25.55-9.05 27.13-11.9 28.7-14.75 28.7-18.55L28.7-18.55Q28.7-24.5 25.5-28.05 22.3-31.6 15.65-31.6L15.65-31.6 10.15-31.6 10.15-5.9ZM58.05 0.8Q52.25 0.8 47.67-1.88 43.1-4.55 40.57-8.97 38.05-13.4 38.05-18.35L38.05-18.35Q38.05-23.35 40.45-27.98 42.85-32.6 47.4-35.5 51.95-38.4 58.05-38.4L58.05-38.4Q64-38.4 68.5-35.65 73-32.9 75.4-28.33 77.8-23.75 77.8-18.35L77.8-18.35Q77.8-13.55 75.42-9.13 73.05-4.7 68.55-1.95 64.05 0.8 58.05 0.8L58.05 0.8ZM58.1-5.8Q61.85-5.8 64.82-7.38 67.8-8.95 69.47-11.83 71.15-14.7 71.15-18.35L71.15-18.35Q71.15-22.2 69.55-25.25 67.95-28.3 64.95-30.08 61.95-31.85 57.85-31.85L57.85-31.85Q54.1-31.85 51.17-30.08 48.25-28.3 46.6-25.2 44.95-22.1 44.95-18.35L44.95-18.35Q44.95-14.45 46.87-11.6 48.8-8.75 51.82-7.28 54.85-5.8 58.1-5.8L58.1-5.8ZM83-36Q83-36.25 82.6-36.4 82.2-36.55 81.8-36.55L81.8-36.55 81.8-37.5 91-37.5 91-36.55Q90.6-36.55 90.2-36.4 89.8-36.25 89.8-36L89.8-36 89.8-1.5Q89.8-1.25 90.2-1.1 90.6-0.95 91-0.95L91-0.95 91 0 81.8 0 81.8-0.95Q82.2-0.95 82.6-1.1 83-1.25 83-1.5L83-1.5 83-36ZM125.44-38.5L126.39-38.5 126.39-30.8 125.44-30.8Q125.44-31.1 125.29-31.45 125.14-31.8 124.89-31.8L124.89-31.8 113.74-31.8 113.74-1.5Q113.74-1.25 114.14-1.1 114.54-0.95 114.94-0.95L114.94-0.95 114.94 0 105.74 0 105.74-0.95Q106.14-0.95 106.54-1.1 106.94-1.25 106.94-1.5L106.94-1.5 106.94-31.8 95.74-31.8Q95.49-31.8 95.34-31.45 95.19-31.1 95.19-30.8L95.19-30.8 94.24-30.8 94.24-38.5 95.19-38.5Q95.19-38.2 95.34-37.85 95.49-37.5 95.74-37.5L95.74-37.5 124.89-37.5Q125.14-37.5 125.29-37.85 125.44-38.2 125.44-38.5L125.44-38.5ZM162.84-37.5L162.84-36.55Q162.49-36.55 162.07-36.4 161.64-36.25 161.64-36L161.64-36 161.64-1.5Q161.64-1.25 162.07-1.1 162.49-0.95 162.84-0.95L162.84-0.95 162.84 0 153.44 0 153.44-0.95Q153.79-0.95 154.22-1.1 154.64-1.25 154.64-1.5L154.64-1.5 154.64-16.6 137.84-16.6 137.84-1.5Q137.84-1.25 138.27-1.1 138.69-0.95 139.04-0.95L139.04-0.95 139.04 0 129.64 0 129.64-0.95Q129.99-0.95 130.42-1.1 130.84-1.25 130.84-1.5L130.84-1.5 130.84-36Q130.84-36.25 130.42-36.4 129.99-36.55 129.64-36.55L129.64-36.55 129.64-37.5 139.04-37.5 139.04-36.55Q138.69-36.55 138.27-36.4 137.84-36.25 137.84-36L137.84-36 137.84-22.85 154.64-22.85 154.64-36Q154.64-36.25 154.22-36.4 153.79-36.55 153.44-36.55L153.44-36.55 153.44-37.5 162.84-37.5ZM179.59 0.6Q175.89 0.6 173.06-0.98 170.24-2.55 168.66-5.3 167.09-8.05 167.09-11.5L167.09-11.5Q167.09-14.9 168.66-17.7 170.24-20.5 173.09-22.13 175.94-23.75 179.59-23.75L179.59-23.75Q183.09-23.75 185.94-22.18 188.79-20.6 190.44-17.82 192.09-15.05 192.09-11.5L192.09-11.5Q192.09-8.4 190.61-5.63 189.14-2.85 186.29-1.13 183.44 0.6 179.59 0.6L179.59 0.6ZM179.59-5.15Q182.54-5.15 184.36-6.88 186.19-8.6 186.19-11.35L186.19-11.35Q186.19-14.2 184.36-16.05 182.54-17.9 179.59-17.9L179.59-17.9Q176.84-17.9 174.99-16.07 173.14-14.25 173.14-11.5L173.14-11.5Q173.14-8.6 174.99-6.88 176.84-5.15 179.59-5.15L179.59-5.15ZM208.59-24L209.54-24 209.54-16.4 208.59-16.4Q208.59-16.75 208.44-17.07 208.29-17.4 208.04-17.4L208.04-17.4 204.79-17.4 204.79-1.5Q204.79-1.25 205.14-1.1 205.49-0.95 205.84-0.95L205.84-0.95 205.84 0 197.69 0 197.69-0.95Q198.04-0.95 198.39-1.1 198.74-1.25 198.74-1.5L198.74-1.5 198.74-17.4 196.34-17.4Q196.09-17.4 195.94-17.07 195.79-16.75 195.79-16.4L195.79-16.4 194.84-16.4 194.84-24 195.79-24Q195.79-23.65 195.94-23.33 196.09-23 196.34-23L196.34-23 198.74-23 198.74-28.85Q198.74-29.1 198.39-29.25 198.04-29.4 197.69-29.4L197.69-29.4 197.69-30.35 205.84-30.35 205.84-29.4Q205.49-29.4 205.14-29.25 204.79-29.1 204.79-28.85L204.79-28.85 204.79-23 208.04-23Q208.29-23 208.44-23.33 208.59-23.65 208.59-24L208.59-24ZM224.48-24.05Q228.33-24.05 231.13-22.38 233.93-20.7 235.38-17.85 236.83-15 236.83-11.55L236.83-11.55Q236.83-10.5 236.68-9.45L236.68-9.45 218.38-9.45Q218.58-7.05 220.48-5.7 222.38-4.35 225.03-4.35L225.03-4.35Q226.83-4.35 228.06-4.85 229.28-5.35 230.23-6.35L230.23-6.35Q230.33-6.55 230.33-6.6L230.33-6.6Q230.33-6.8 230.18-7.03 230.03-7.25 229.88-7.35L229.88-7.35 230.48-8.1 236.03-3.75 235.48-3Q234.73-3.45 234.43-3.1L234.43-3.1Q230.93 1.1 225.03 1.1L225.03 1.1Q221.23 1.1 218.33-0.58 215.43-2.25 213.86-5.08 212.28-7.9 212.28-11.35L212.28-11.35Q212.28-15 213.83-17.9 215.38-20.8 218.16-22.43 220.93-24.05 224.48-24.05L224.48-24.05ZM218.43-14.1L230.83-14.1Q230.63-16.15 228.76-17.57 226.88-19 224.53-19L224.53-19Q222.18-19 220.48-17.57 218.78-16.15 218.43-14.1L218.43-14.1ZM241.78-36Q241.78-36.25 241.41-36.4 241.03-36.55 240.63-36.55L240.63-36.55 240.63-37.5 249.43-37.5 249.43-36.55Q249.03-36.55 248.66-36.4 248.28-36.25 248.28-36L248.28-36 248.28-1.5Q248.28-1.25 248.66-1.1 249.03-0.95 249.43-0.95L249.43-0.95 249.43 0 240.63 0 240.63-0.95Q241.03-0.95 241.41-1.1 241.78-1.25 241.78-1.5L241.78-1.5 241.78-36Z" opacity="1" transform="matrix(1,0,0,1,0,0)" fill="#fff" class="wordmark-text-0" data-fill-palette-color="primary" id="text-0"></path></svg></g></svg></g></svg></g></svg></g></svg></g><defs></defs></svg><rect width="395.52" height="63.4241425389755" fill="none" stroke="none" visibility="hidden"></rect></g></svg></g></svg>